<?xml version="1.0" encoding="utf-8"?>
<!-- Generator: Adobe Illustrator 15.0.0, SVG Export Plug-In . SVG Version: 6.00 Build 0)  -->
<!DOCTYPE svg PUBLIC "-//W3C//DTD SVG 1.1//EN" "http://www.w3.org/Graphics/SVG/1.1/DTD/svg11.dtd">
<svg version="1.1" xmlns="http://www.w3.org/2000/svg" xmlns:xlink="http://www.w3.org/1999/xlink" x="0px" y="0px"
	 width="841.89px" height="595.28px" viewBox="0 0 841.89 595.28" enable-background="new 0 0 841.89 595.28" xml:space="preserve">
<g id="bg" display="none">
	<rect display="inline" fill="#706F6F" width="841.89" height="595.28"/>
</g>
<g id="Calque_3" display="none">
</g>
<g id="Calque_3_-_copie">
	<polygon fill="#FFFEFE" points="320.75,518.791 216,441.667 516.416,153.273 642,368.5 	"/>
	<polygon fill="#FFFEFE" points="707.654,282.089 587.75,336.032 454.374,252.731 525.029,153.273 	"/>
	<polygon fill="#FFFEFE" points="404.667,461 241.333,516.266 241.333,161.71 405.873,100.229 	"/>
	<polygon fill="#263F5D" points="699.616,375.664 669.644,355.239 497.188,237.726 418.805,313.945 302,429.667 348.349,423.431 
		444.192,329.959 545.878,401.771 241.333,516.266 246.441,82.447 214.616,94.413 209.133,560.065 209.429,559.954 209.427,560.847 
			"/>
	<polygon fill="#E94D3D" points="719.666,319 517.017,181.512 566.875,133.496 522.718,137.391 376.688,275.245 379.247,32.519 
		273.47,72.286 270.224,415.662 293.393,393.486 293.394,393.58 309.358,378.205 376.277,314.155 376.281,313.754 494.228,203.46 
		681.229,332.666 	"/>
</g>
<g id="palette" display="none">
	<path display="inline" fill="#E94D3D" d="M823.74,65.199c0,4.16-3.372,7.532-7.531,7.532h-42.678c-4.159,0-7.531-3.372-7.531-7.532
		V23.776c0-4.159,3.372-7.531,7.531-7.531h42.678c4.159,0,7.531,3.372,7.531,7.531V65.199z"/>
	<path display="inline" fill="#263F5D" d="M823.74,129.859c0,4.159-3.372,7.532-7.531,7.532h-42.678
		c-4.159,0-7.531-3.373-7.531-7.532V88.437c0-4.159,3.372-7.531,7.531-7.531h42.678c4.159,0,7.531,3.372,7.531,7.531V129.859z"/>
	<path display="inline" fill="#FFFEFE" d="M823.74,196.03c0,4.159-3.372,7.531-7.531,7.531h-42.678
		c-4.159,0-7.531-3.372-7.531-7.531v-41.422c0-4.159,3.372-7.531,7.531-7.531h42.678c4.159,0,7.531,3.372,7.531,7.531V196.03z"/>
</g>
</svg>
